<?xml version="1.0" encoding="utf-8"?>
<!-- Generator: Adobe Illustrator 16.0.0, SVG Export Plug-In . SVG Version: 6.00 Build 0)  -->
<!DOCTYPE svg PUBLIC "-//W3C//DTD SVG 1.1//EN" "http://www.w3.org/Graphics/SVG/1.1/DTD/svg11.dtd">
<svg version="1.1" id="Layer_1" xmlns="http://www.w3.org/2000/svg" xmlns:xlink="http://www.w3.org/1999/xlink" x="0px" y="0px"
	 width="200px" height="200px" viewBox="0 0 200 200" enable-background="new 0 0 200 200" xml:space="preserve">
<g>
	<g>
		<g>
			<path fill="#038181" d="M100,18.736c2.063,0,3.734-1.671,3.734-3.735V8.132c0-2.063-1.671-3.734-3.734-3.734
				c-2.063,0-3.734,1.671-3.734,3.734v6.869C96.266,17.065,97.937,18.736,100,18.736z"/>
			<path fill="#038181" d="M132.343,27.836c0.582,0.328,1.213,0.484,1.835,0.484c1.303,0,2.567-0.683,3.256-1.897l3.604-6.375
				c1.015-1.794,0.382-4.073-1.412-5.089c-1.795-1.015-4.074-0.383-5.089,1.412l-3.604,6.375
				C129.918,24.542,130.547,26.821,132.343,27.836L132.343,27.836z"/>
			<path fill="#038181" d="M157.432,52.479c0.609,0,1.229-0.149,1.801-0.465l6.892-3.806c1.807-0.994,2.462-3.267,1.466-5.072
				c-0.997-1.806-3.27-2.462-5.074-1.465l-6.893,3.805c-1.805,0.996-2.463,3.268-1.466,5.073
				C154.84,51.782,156.116,52.479,157.432,52.479z"/>
			<path fill="#038181" d="M174.323,78.768h-7.289c-2.062,0-3.735,1.672-3.735,3.733c0,2.064,1.674,3.735,3.735,3.735h7.289
				c2.063,0,3.736-1.671,3.736-3.735C178.06,80.44,176.387,78.768,174.323,78.768z"/>
			<path fill="#038181" d="M62.567,26.424c0.687,1.214,1.952,1.897,3.253,1.897c0.624,0,1.255-0.157,1.837-0.484
				c1.794-1.016,2.426-3.294,1.411-5.089l-3.606-6.375c-1.016-1.795-3.294-2.427-5.089-1.412c-1.795,1.016-2.428,3.294-1.412,5.089
				L62.567,26.424z"/>
			<path fill="#038181" d="M33.875,48.208l6.892,3.806c0.573,0.316,1.191,0.465,1.801,0.465c1.316,0,2.592-0.697,3.273-1.931
				c0.997-1.805,0.341-4.076-1.465-5.073l-6.893-3.805c-1.806-0.997-4.077-0.341-5.075,1.465
				C31.413,44.941,32.069,47.212,33.875,48.208L33.875,48.208z"/>
			<path fill="#038181" d="M32.965,86.236c2.063,0,3.735-1.671,3.735-3.735c0-2.061-1.672-3.733-3.735-3.733h-7.291
				c-2.062,0-3.734,1.672-3.734,3.733c0,2.064,1.672,3.735,3.734,3.735H32.965z"/>
			<path fill="#038181" d="M171.734,171.258h-9.151v-22.94c0-2.063-1.671-3.734-3.732-3.734h-7.77V80.694
				c0-28.16-22.91-51.069-51.094-51.069c-28.159,0-51.068,22.909-51.068,51.069v63.889h-7.771c-2.062,0-3.734,1.671-3.734,3.734
				v22.94h-9.15c-2.062,0-3.734,1.674-3.734,3.735v16.873c0,2.062,1.672,3.735,3.734,3.735h143.47c2.064,0,3.734-1.674,3.734-3.735
				v-16.873C175.469,172.932,173.796,171.258,171.734,171.258z M56.388,80.694c0-24.041,19.559-43.6,43.623-43.6
				c24.041,0,43.6,19.56,43.6,43.6v63.889h-32.371v-35.245c5.405-3.686,8.677-9.795,8.677-16.438
				c0-10.978-8.935-19.908-19.917-19.908c-10.981,0-19.916,8.931-19.916,19.908c0,6.644,3.272,12.752,8.675,16.438v35.245H56.388
				V80.694z M94.228,103.924c-4.117-2.158-6.676-6.383-6.676-11.024c0-6.86,5.584-12.44,12.448-12.44
				c6.864,0,12.446,5.58,12.446,12.44c0,4.642-2.557,8.866-6.673,11.024c-1.231,0.645-2.002,1.92-2.002,3.308v37.352h-7.543v-37.352
				C96.228,105.844,95.457,104.568,94.228,103.924z M168,188.13H31.999v-9.404h51.119c2.063,0,3.734-1.67,3.734-3.732
				c0-2.062-1.671-3.735-3.734-3.735H44.883v-19.206h110.233v19.206h-38.235c-2.063,0-3.733,1.674-3.733,3.735
				c0,2.063,1.671,3.732,3.733,3.732H168V188.13z"/>
			<path fill="#038181" d="M103.518,173.563c-0.602-1.444-2.085-2.385-3.649-2.299c-1.555,0.083-2.919,1.157-3.372,2.644
				c-0.452,1.484,0.09,3.163,1.347,4.083c1.227,0.902,2.899,0.973,4.194,0.172C103.57,177.216,104.211,175.228,103.518,173.563
				L103.518,173.563z"/>
		</g>
	</g>
</g>
</svg>
