<?xml version="1.0" encoding="utf-8"?>
<!-- Generator: Adobe Illustrator 16.0.0, SVG Export Plug-In . SVG Version: 6.00 Build 0)  -->
<!DOCTYPE svg PUBLIC "-//W3C//DTD SVG 1.1//EN" "http://www.w3.org/Graphics/SVG/1.1/DTD/svg11.dtd">
<svg version="1.1" id="Layer_1" xmlns="http://www.w3.org/2000/svg" xmlns:xlink="http://www.w3.org/1999/xlink" x="0px" y="0px"
	 width="512px" height="512px" viewBox="0 0 512 512" enable-background="new 0 0 512 512" xml:space="preserve">
<path fill="#FFFFFF" d="M399.953,235.191c0-0.91,0.047-135.199,0.047-135.199L200,0L0,100v132.465
	c-0.078,82.953,41.383,160.438,110.441,206.398L200,498.543l68.992-45.957c37.289,47.766,101.703,65.066,157.906,42.414
	c56.207-22.652,90.621-79.781,84.371-140.055c-6.254-60.277-51.66-109.125-111.316-119.762V235.191z M200,479.344l-80.68-53.777
	C54.707,382.57,15.918,310.074,16,232.465V109.887l184-92l184,92v123.465c-2.656-0.16-5.289-0.406-8-0.406s-5.352,0.246-8,0.406
	c0-0.297,0-113.598,0-113.598L200,35.762l-168,84v112.703c-0.059,72.254,36.055,139.738,96.199,179.773L200,460.078l52.336-34.871
	c2.238,4.883,4.766,9.629,7.566,14.211L200,479.344z M246.352,409.977L200,440.855l-62.918-41.926
	c-3.105-2.074-6.113-4.25-9.082-6.48v-71.504h-16v58.078c-8.781-8.141-16.813-17.059-24-26.641v-46.488
	c0.004-11,7.484-20.59,18.152-23.27l54.254-13.602c1.742,17.348,14.527,31.559,31.594,35.121v32.801h16v-32.801
	c17.066-3.559,29.848-17.773,31.586-35.121l35.613,8.945c-32.469,35.707-43.461,86.004-28.848,132V409.977z M160,168.945h22.113
	c12.348-0.016,24.543-2.75,35.719-8H220l20,26.664v33.336l-26.664,20h-26.672l-26.664-20V168.945z M144.664,152.945
	c1.621-10.031,8.008-18.652,17.137-23.121c17.695-7.875,37.633-9.129,56.176-3.535l1.84,2.656H232c4.418,0,8,3.582,8,8v24l-12-16
	h-13.887l-1.688,0.84c-9.418,4.691-19.793,7.145-30.313,7.16H144.664z M224,252.945v12c0,13.254-10.746,24-24,24s-24-10.746-24-24
	v-12l5.336,4h37.328L224,252.945z M240,252.633v-11.688l16-12v-92c0-13.258-10.746-24-24-24h-5.32
	c-11.574-7.035-40.391-8.457-60.801-2.074c-22.887,5.621-38.695,26.52-37.879,50.074v8h16v60l16,12v11.648l-57.742,14.52
	C84.461,271.555,71.98,287.555,72,305.895v21.602c-15.766-29.191-24.016-61.852-24-95.031V129.648l152-76l152,76v102.816
	c0,0.918-0.055,1.832-0.063,2.742c-23.332,4.172-45.156,14.395-63.297,29.648L240,252.633z M376,488.945
	c-66.273,0-120-53.727-120-120c0-66.277,53.727-120,120-120s120,53.723,120,120C495.926,435.188,442.242,488.867,376,488.945z"/>
<path fill="#FFFFFF" d="M416,136.945h96v16h-96V136.945z"/>
<path fill="#FFFFFF" d="M416,168.945h64v16h-64V168.945z"/>
<path fill="#FFFFFF" d="M416,200.945h32v16h-32V200.945z"/>
<path fill="#FFFFFF" d="M346.543,363.289l-28.277-28.281l-45.258,45.25l73.535,73.535l124.449-124.449l-45.258-45.246
	L346.543,363.289z M346.543,431.168l-50.91-50.91l22.633-22.625l28.277,28.277l79.199-79.199l22.633,22.625L346.543,431.168z"/>
</svg>
