<?xml version="1.0" encoding="utf-8"?>
<!-- Generator: Adobe Illustrator 16.0.0, SVG Export Plug-In . SVG Version: 6.00 Build 0)  -->
<!DOCTYPE svg PUBLIC "-//W3C//DTD SVG 1.1//EN" "http://www.w3.org/Graphics/SVG/1.1/DTD/svg11.dtd">
<svg version="1.1" id="Layer_1" xmlns="http://www.w3.org/2000/svg" xmlns:xlink="http://www.w3.org/1999/xlink" x="0px" y="0px"
	 width="150px" height="150px" viewBox="0 0 150 150" enable-background="new 0 0 150 150" xml:space="preserve">
<g>
	<g>
		<g>
			<path fill="#089A90" d="M42.666,96.674l-3.379-7.613c-0.605-1.366-1.904-2.327-3.389-2.507l-14.582-1.77
				c-1.417-0.17-2.819,0.372-3.751,1.454c-0.931,1.082-1.259,2.55-0.877,3.926l2.131,7.686c0.471,1.697,1.907,2.916,3.659,3.104
				l15.829,1.696c0.158,0.017,0.315,0.025,0.471,0.025c1.358,0,2.618-0.636,3.435-1.755C43.122,99.673,43.291,98.086,42.666,96.674z
				 M23.032,96.593l-2.059-7.423l14.326,1.737l3.262,7.352L23.032,96.593z"/>
		</g>
	</g>
	<g>
		<g>
			<path fill="#089A90" d="M132.514,86.239c-0.932-1.083-2.336-1.626-3.751-1.454l-14.583,1.769
				c-1.483,0.18-2.782,1.141-3.388,2.507l-3.378,7.614c-0.627,1.411-0.457,2.998,0.453,4.246c0.815,1.119,2.074,1.756,3.434,1.755
				c0.156,0,0.313-0.008,0.471-0.024l15.83-1.697c1.752-0.188,3.188-1.406,3.658-3.104l2.131-7.686
				C133.772,88.788,133.444,87.321,132.514,86.239z M127.048,96.593l-15.529,1.666l3.262-7.352l14.326-1.737L127.048,96.593z"/>
		</g>
	</g>
	<g>
		<g>
			<path fill="#089A90" d="M103.866,96.726l-1.811-7.049c-0.605-2.356-2.728-4.002-5.161-4.002h-43.71
				c-2.434,0-4.556,1.646-5.161,4.002l-1.811,7.049c-0.413,1.607-0.066,3.281,0.951,4.592c1.016,1.311,2.551,2.063,4.21,2.063
				h47.331c1.659,0,3.193-0.752,4.211-2.063C103.933,100.006,104.279,98.333,103.866,96.726z M99.443,98.624
				c-0.105,0.135-0.34,0.361-0.738,0.361H51.374c-0.397,0-0.634-0.227-0.737-0.361c-0.105-0.135-0.267-0.42-0.168-0.805l0.281-1.094
				h27.645c1.213,0,2.197-0.984,2.197-2.197c0-1.215-0.984-2.197-2.197-2.197H51.879l0.4-1.561c0.106-0.412,0.479-0.701,0.904-0.701
				h43.711c0.426,0,0.799,0.289,0.904,0.701l0.4,1.561h-9.582c-1.213,0-2.197,0.982-2.197,2.197c0,1.213,0.984,2.197,2.197,2.197
				h10.711l0.281,1.094C99.709,98.204,99.548,98.489,99.443,98.624z"/>
		</g>
	</g>
	<g>
		<g>
			<path fill="#089A90" d="M144.203,53.029h-8.795c-1.355,0-2.6,0.471-3.588,1.252l-5.731-18.061
				c-1.882-5.93-7.325-9.914-13.546-9.914h-4.291v-1.967c0-3.771-3.068-6.84-6.84-6.84H82.264c-0.409-1.537-1.81-2.675-3.474-2.675
				h-7.5c-1.665,0-3.064,1.138-3.474,2.675h-9.701c-1.214,0-2.197,0.983-2.197,2.197s0.983,2.197,2.197,2.197h9.576v4.413h-21.47
				v-1.967c0-1.187,0.845-2.199,2.009-2.407c1.194-0.214,1.99-1.356,1.775-2.55s-1.355-1.989-2.551-1.775
				c-3.262,0.584-5.629,3.416-5.629,6.733v1.967h-4.361c-6.221,0-11.665,3.984-13.547,9.914l-5.733,18.065
				c-0.989-0.784-2.236-1.256-3.592-1.256H5.797C2.601,53.029,0,55.629,0,58.827v4.421c0,3.196,2.601,5.797,5.797,5.797h4.357
				c-3.173,4.159-5.088,9.442-5.088,14.343v19.277c0,4.521,3.069,8.336,7.231,9.479v9.803c0,4.508,3.667,8.174,8.174,8.174h8.859
				c4.508,0,8.174-3.667,8.174-8.174v-9.451h74.992v9.451c0,4.508,3.666,8.174,8.174,8.174h8.859c4.506,0,8.173-3.667,8.173-8.174
				v-9.803c4.163-1.143,7.231-4.957,7.231-9.479V83.388c0-4.9-1.915-10.184-5.088-14.343h4.357c3.196,0,5.797-2.601,5.797-5.797
				v-4.421C150,55.629,147.4,53.029,144.203,53.029z M101.412,21.894c1.349,0,2.445,1.097,2.445,2.446v1.967h-21.47v-4.413H101.412z
				 M77.993,19.219v7.087h-5.907v-7.087H77.993z M28.106,37.55c1.3-4.096,5.062-6.849,9.358-6.849h75.077
				c4.298,0,8.058,2.752,9.358,6.849l7.712,24.301c-1.143-0.288-2.325-0.444-3.538-0.444h-0.978l-6.737-21.227
				c-0.979-3.089-3.814-5.164-7.057-5.164H38.705c-3.24,0-6.076,2.076-7.057,5.165l-6.736,21.226h-0.985
				c-1.211,0-2.391,0.155-3.531,0.442L28.106,37.55z M120.486,61.406H29.522l6.315-19.896c0.398-1.256,1.551-2.1,2.867-2.1h72.599
				c1.317,0,2.47,0.844,2.868,2.099L120.486,61.406z M23.926,65.801h102.148c1.294,0,2.547,0.254,3.738,0.708l-4.322,7.789
				c-1.238,2.229-4.048,3.669-7.159,3.669H31.748c-3.111,0-5.922-1.44-7.159-3.669l-4.305-7.755
				C21.506,66.062,22.739,65.801,23.926,65.801z M5.797,64.65c-0.773,0-1.402-0.629-1.402-1.402v-4.421
				c0-0.773,0.629-1.402,1.402-1.402h8.795c0.773,0,1.402,0.629,1.402,1.402v2.359l-1.006,3.171
				c-0.023,0.016-0.046,0.033-0.069,0.049c-0.062,0.044-0.124,0.088-0.186,0.132c-0.052,0.038-0.105,0.074-0.157,0.112H5.797z
				 M33.11,121.946c0,2.084-1.695,3.779-3.779,3.779h-8.859c-2.084,0-3.779-1.695-3.779-3.779v-9.451H33.11V121.946z
				 M133.309,121.946L133.309,121.946c0,2.084-1.695,3.779-3.779,3.779h-8.859c-2.084,0-3.779-1.695-3.779-3.779v-9.451h16.418
				V121.946z M140.539,83.387v19.278c0,2.997-2.438,5.436-5.435,5.436H14.896c-2.997,0-5.436-2.438-5.436-5.436V83.387
				c0-6.103,3.105-11.459,7.037-14.611l4.25,7.655c2,3.604,6.318,5.931,11.001,5.931h86.584c4.682,0,9-2.327,11-5.931l4.26-7.672
				C137.764,72.225,140.539,78.162,140.539,83.387z M144.203,64.65h-8.775c-0.135-0.098-0.271-0.195-0.408-0.29l-1.014-3.194v-2.339
				c0-0.773,0.629-1.402,1.402-1.402h8.795c0.773,0,1.402,0.629,1.402,1.402v4.421l0,0C145.605,64.021,144.977,64.65,144.203,64.65z
				"/>
		</g>
	</g>
</g>
</svg>
