<?xml version="1.0" encoding="utf-8"?>
<!-- Generator: Adobe Illustrator 16.0.0, SVG Export Plug-In . SVG Version: 6.00 Build 0)  -->
<!DOCTYPE svg PUBLIC "-//W3C//DTD SVG 1.1//EN" "http://www.w3.org/Graphics/SVG/1.1/DTD/svg11.dtd">
<svg version="1.1" id="Layer_1" xmlns="http://www.w3.org/2000/svg" xmlns:xlink="http://www.w3.org/1999/xlink" x="0px" y="0px"
	 width="150px" height="150px" viewBox="0 0 150 150" enable-background="new 0 0 150 150" xml:space="preserve">
<g>
	<path fill="#089A90" d="M75.943,21.319c9.521,0,19.06,2.703,27.58,7.817c5.404,3.252,10.262,7.339,14.388,12.111l-14.235-0.47
		c-1.674-0.056-3.073,1.255-3.127,2.928c-0.056,1.672,1.254,3.073,2.927,3.127l19.696,0.65c1.131,0.466,2.432,0.206,3.297-0.661
		c0.865-0.866,1.122-2.167,0.655-3.298l-0.648-19.691c-0.037-1.673-1.425-2.998-3.098-2.961c-1.672,0.038-2.999,1.425-2.961,3.097
		c0,0.022,0,0.043,0.002,0.065l0.374,11.36c-4.166-4.453-8.93-8.309-14.152-11.455c-9.461-5.677-20.077-8.678-30.697-8.678
		c-16.964,0-32.605,6.995-44.036,19.696C21.781,46.208,15.736,61.352,15.736,75.468c0,1.673,1.355,3.029,3.029,3.029
		s3.029-1.356,3.029-3.029c0-12.66,5.463-26.29,14.616-36.458C46.679,27.603,60.717,21.319,75.943,21.319z"/>
	<path fill="#089A90" d="M133.883,72.438c-1.675,0-3.029,1.356-3.029,3.03c0,12.66-5.464,26.29-14.615,36.459
		c-10.27,11.406-24.308,17.688-39.534,17.688c-9.521,0-19.059-2.7-27.58-7.814c-5.404-3.253-10.26-7.34-14.386-12.11l14.235,0.469
		c1.671,0.055,3.072-1.257,3.127-2.929c0.055-1.672-1.256-3.072-2.928-3.128l-19.696-0.649c-1.131-0.466-2.432-0.205-3.297,0.661
		c-0.864,0.866-1.123,2.164-0.655,3.298l0.649,19.689c0.038,1.674,1.425,3.001,3.097,2.964c1.672-0.039,2.999-1.425,2.961-3.098
		c0-0.021,0-0.042-0.002-0.065l-0.375-11.36c4.167,4.454,8.93,8.308,14.152,11.456c9.462,5.679,20.078,8.679,30.697,8.679
		c16.966,0,32.606-6.994,44.036-19.695c10.127-11.252,16.172-26.396,16.172-40.514C136.912,73.794,135.556,72.438,133.883,72.438z"
		/>
</g>
</svg>
