<?xml version="1.0" encoding="utf-8"?>
<!-- Generator: Adobe Illustrator 16.0.0, SVG Export Plug-In . SVG Version: 6.00 Build 0)  -->
<!DOCTYPE svg PUBLIC "-//W3C//DTD SVG 1.1//EN" "http://www.w3.org/Graphics/SVG/1.1/DTD/svg11.dtd">
<svg version="1.1" id="Layer_1" xmlns="http://www.w3.org/2000/svg" xmlns:xlink="http://www.w3.org/1999/xlink" x="0px" y="0px"
	 width="512px" height="512px" viewBox="0 0 512 512" enable-background="new 0 0 512 512" xml:space="preserve">
<path fill="#FFFFFF" d="M220.648,253.863l-10.871-11.734c26.074-24.16,66.355-24.16,92.43,0l-10.871,11.734
	C271.395,235.387,240.59,235.387,220.648,253.863z"/>
<path fill="#FFFFFF" d="M400,448h80v-16h-48V0H80v432H32v16h155.055l8,16H0v16h203.055l3.059,6.113
	C214,502.02,230.246,512.059,248,512h124l24-32h116v-16H400V448z M384,464v5.336L364,496H248
	c-11.688,0.043-22.383-6.566-27.574-17.039l-34.449-68.891c-1.781-3.566-1.988-7.723-0.57-11.449c1.418-3.73,4.332-6.695,8.035-8.18
	c1.691-0.68,3.5-1.031,5.328-1.035c4.98,0.004,9.598,2.613,12.168,6.883L232.574,432H248V284c0-6.629,5.371-12,12-12s12,5.371,12,12
	v100h16v-24h16c4.418,0,8,3.582,8,8v32h16v-24h16c4.418,0,8,3.582,8,8v32h16v-24h8c4.418,0,8,3.582,8,8V464z M320,208v96h-32v-20
	c0-15.465-12.535-28-28-28s-28,12.535-28,28v20h-40v-96H320z M208,192v-32c0-26.508,21.492-48,48-48c26.512,0,48,21.492,48,48v32
	H208z M376,376h-9.367c-3.402-9.582-12.465-15.988-22.633-16h-17.367c-3.402-9.582-12.465-15.988-22.633-16h-16v-24h48V192h-16v-32
	c0-35.348-28.652-64-64-64s-64,28.652-64,64v32h-16v128h56v80.168L224.625,388c-8.438-13.844-26.281-18.586-40.477-10.754
	s-19.699,25.461-12.484,39.977L179.055,432H128V272h-16v160H96V16h320v416h-16v-32C400,386.746,389.254,376,376,376z"/>
<path fill="#FFFFFF" d="M136,176c-13.254,0-24,10.746-24,24v32c0,13.254,10.746,24,24,24s24-10.746,24-24v-32
	C160,186.746,149.254,176,136,176z M144,232c0,4.418-3.582,8-8,8s-8-3.582-8-8v-32c0-4.418,3.582-8,8-8s8,3.582,8,8V232z"/>
<path fill="#FFFFFF" d="M400,32H112v128h16V48h256v312h16V32z"/>
<path fill="#FFFFFF" d="M0,432h16v16H0V432z"/>
<path fill="#FFFFFF" d="M496,432h16v16h-16V432z"/>
</svg>
