<?xml version="1.0" encoding="utf-8"?>
<!-- Generator: Adobe Illustrator 16.0.0, SVG Export Plug-In . SVG Version: 6.00 Build 0)  -->
<!DOCTYPE svg PUBLIC "-//W3C//DTD SVG 1.1//EN" "http://www.w3.org/Graphics/SVG/1.1/DTD/svg11.dtd">
<svg version="1.1" id="Layer_1" xmlns="http://www.w3.org/2000/svg" xmlns:xlink="http://www.w3.org/1999/xlink" x="0px" y="0px"
	 width="150px" height="150px" viewBox="0 0 150 150" enable-background="new 0 0 150 150" xml:space="preserve">
<g>
	<path fill="#089A90" d="M146.495,35.321c-1.929-1.131-4.309-1.158-6.262-0.073l-26.357,14.678v50.147l26.357,14.678
		c1.953,1.086,4.333,1.061,6.262-0.074c1.923-1.131,3.107-3.199,3.107-5.432V40.753C149.603,38.522,148.418,36.453,146.495,35.321z"
		/>
	<path fill="#089A90" d="M96.05,30.032H6.702c-3.482,0-6.304,2.822-6.304,6.302v77.33c0,3.48,2.822,6.305,6.304,6.305H96.05
		c3.483,0,6.306-2.824,6.306-6.305v-77.33C102.354,32.854,99.532,30.032,96.05,30.032z M73.141,99.535
		c-14.984,8.57-34.081,3.371-42.659-11.615c-8.572-14.984-3.371-34.082,11.612-42.657c2.973-1.697,6.105-2.836,9.287-3.484
		c-8.767,9.757-10.769,24.403-3.895,36.415c6.872,12.014,20.505,17.713,33.367,15.098C78.682,95.705,76.112,97.834,73.141,99.535z"
		/>
</g>
</svg>
