<?xml version="1.0" encoding="utf-8"?>
<!-- Generator: Adobe Illustrator 16.0.0, SVG Export Plug-In . SVG Version: 6.00 Build 0)  -->
<!DOCTYPE svg PUBLIC "-//W3C//DTD SVG 1.1//EN" "http://www.w3.org/Graphics/SVG/1.1/DTD/svg11.dtd">
<svg version="1.1" id="Layer_1" xmlns="http://www.w3.org/2000/svg" xmlns:xlink="http://www.w3.org/1999/xlink" x="0px" y="0px"
	 width="512px" height="512px" viewBox="0 0 512 512" enable-background="new 0 0 512 512" xml:space="preserve">
<path fill="#FFFFFF" d="M223.952,440.017h63.985v15.996h-63.985V440.017z"/>
<path fill="#FFFFFF" d="M287.938,424.02v-58.08c20.073-13.98,28.751-39.373,21.425-62.712
	c-7.326-23.343-28.954-39.222-53.417-39.222c-24.463,0-46.095,15.879-53.417,39.222c-7.326,23.339,1.348,48.731,21.425,62.712v58.08
	H287.938z M215.954,320.044c-0.016-19.409,13.911-36.03,33.023-39.413c19.112-3.382,37.897,7.451,44.54,25.693
	c6.644,18.238-0.769,38.616-17.577,48.32l-3.999,2.313v51.066h-31.993v-51.066l-4-2.313
	C223.608,347.482,215.997,334.311,215.954,320.044z"/>
<path fill="#FFFFFF" d="M23.999,288.051c10.13-0.043,19.144-6.443,22.522-15.996h54.651l39.991,31.992h42.799v-15.996h-37.183
	l-39.991-31.992H79.985v-31.993h351.919v31.993h-26.803l-39.99,31.992h-37.184v15.996h42.799l39.991-31.992h54.651
	c3.894,11.018,15.16,17.629,26.678,15.652c11.517-1.976,19.937-11.965,19.937-23.65c0-11.685-8.42-21.671-19.937-23.647
	c-11.518-1.976-22.784,4.632-26.678,15.649H447.9V208.07h-31.992v-47.989c0-88.343-71.62-159.963-159.963-159.963
	c-88.347,0-159.963,71.62-159.963,159.963v47.989H63.989v47.989H46.521c-4.089-11.474-16.133-18.055-27.998-15.293
	C6.659,243.53-1.242,254.754,0.16,266.854C1.558,278.951,11.817,288.074,23.999,288.051z M487.892,256.059
	c4.417,0,7.998,3.581,7.998,7.998s-3.581,7.998-7.998,7.998s-7.998-3.581-7.998-7.998S483.475,256.059,487.892,256.059z
	 M335.927,208.07H175.963v-47.989c0-44.173,35.808-79.981,79.981-79.981c44.169,0,79.982,35.808,79.982,79.981V208.07z
	 M111.978,160.081c0-79.509,64.454-143.967,143.967-143.967c79.509,0,143.967,64.458,143.967,143.967v47.989h-47.989v-47.989
	c0-53.007-42.971-95.978-95.978-95.978s-95.978,42.97-95.978,95.978v47.989h-47.989V160.081z M23.999,256.059
	c4.417,0,7.998,3.581,7.998,7.998s-3.581,7.998-7.998,7.998S16,268.474,16,264.057S19.582,256.059,23.999,256.059z"/>
<path fill="#FFFFFF" d="M487.892,408.023c-10.135,0.043-19.148,6.443-22.522,15.996H419.22l-55.987-55.986h-51.301v15.996h44.678
	l15.996,15.996h-68.672v15.996h84.668l23.994,23.995h19.309v55.986H79.985v-79.981h127.971v-15.996H52.679l-18.398,18.398
	c-3.203-1.57-6.717-2.391-10.283-2.402c-13.255,0-23.995,10.744-23.995,23.995c0,13.25,10.74,23.994,23.995,23.994
	c13.25,0,23.994-10.744,23.994-23.994c-0.016-3.563-0.835-7.077-2.402-10.279l13.712-13.716h4.687V512H447.9v-71.983h17.469
	c4.085,11.474,16.133,18.054,27.993,15.293c11.865-2.761,19.766-13.985,18.367-26.088
	C510.327,417.123,500.072,408.004,487.892,408.023z M23.999,448.015c-4.417,0-7.999-3.582-7.999-7.998
	c0-4.417,3.582-7.999,7.999-7.999s7.998,3.582,7.998,7.999C31.997,444.433,28.416,448.015,23.999,448.015z M487.892,440.017
	c-4.417,0-7.998-3.582-7.998-7.999s3.581-7.998,7.998-7.998s7.998,3.581,7.998,7.998S492.309,440.017,487.892,440.017z"/>
<path fill="#FFFFFF" d="M125.311,344.038h58.65v-15.996h-53.324l-31.993-23.995H0.004v15.997h93.314L125.311,344.038z"/>
<path fill="#FFFFFF" d="M199.958,368.033h-92.667L75.299,336.04H0.004v15.997h68.672l15.996,15.996H0.004v15.996h199.954V368.033z"
	/>
<path fill="#FFFFFF" d="M365.111,336.04h-37.184v15.997h76.67l23.995,23.994h36.792c3.894,11.017,15.16,17.629,26.678,15.652
	c11.517-1.977,19.937-11.966,19.937-23.65c0-11.686-8.42-21.672-19.937-23.647c-11.518-1.976-22.784,4.632-26.678,15.649h-30.153
	l-23.994-23.995h-20.515l19.995-15.996h101.168v-15.997H405.102L365.111,336.04z M487.892,360.035c4.417,0,7.998,3.58,7.998,7.998
	c0,4.416-3.581,7.998-7.998,7.998s-7.998-3.582-7.998-7.998C479.894,363.615,483.475,360.035,487.892,360.035z"/>
</svg>
