<?xml version="1.0" encoding="utf-8"?>
<!-- Generator: Adobe Illustrator 16.0.0, SVG Export Plug-In . SVG Version: 6.00 Build 0)  -->
<!DOCTYPE svg PUBLIC "-//W3C//DTD SVG 1.1//EN" "http://www.w3.org/Graphics/SVG/1.1/DTD/svg11.dtd">
<svg version="1.1" id="Layer_1" xmlns="http://www.w3.org/2000/svg" xmlns:xlink="http://www.w3.org/1999/xlink" x="0px" y="0px"
	 width="200px" height="200px" viewBox="0 0 200 200" enable-background="new 0 0 200 200" xml:space="preserve">
<g id="Outline">
	<g>
		<path fill="#038181" d="M183.17,40.594h-14.853v-8.911c0-1.64-1.329-2.97-2.971-2.97h-26.732V13.861
			c0-1.641-1.331-2.971-2.971-2.971L16.831,10.947c-0.714-0.021-1.41,0.221-1.958,0.68c-0.644,0.564-1.013,1.378-1.013,2.234v62.377
			c0,1.641,1.33,2.97,2.97,2.97c1.64,0,2.97-1.33,2.97-2.97V17.253l83.169,11.088v113.244c0,1.641,1.331,2.971,2.971,2.971
			s2.971-1.33,2.971-2.971V25.743c-0.001-1.49-1.104-2.748-2.579-2.944l-44.751-5.967h71.092v95.348
			c-6.909,1.421-11.872,7.5-11.88,14.554v44.555h-11.882v-17.821c0-1.641-1.331-2.971-2.971-2.971s-2.971,1.33-2.971,2.971v29.281
			L19.801,171.66V88.12c0-1.64-1.33-2.971-2.97-2.971c-1.641,0-2.97,1.331-2.97,2.971v86.139c0,1.489,1.103,2.747,2.578,2.943
			l89.11,11.882c0.13,0.018,0.26,0.026,0.392,0.026c1.64,0,2.971-1.33,2.971-2.97v-8.911h12.178c1.42,6.91,7.5,11.872,14.555,11.881
			h29.703c8.199-0.009,14.843-6.653,14.853-14.852v-8.91c0-1.641-1.331-2.971-2.972-2.971c-1.64,0-2.971,1.33-2.971,2.971v8.91
			c0,4.921-3.988,8.911-8.91,8.911h-29.703c-4.921,0-8.911-3.99-8.911-8.911v-47.525c0-4.921,3.99-8.911,8.911-8.911h29.703
			c4.922,0,8.91,3.99,8.91,8.911v26.733c0,1.641,1.331,2.97,2.971,2.97c1.641,0,2.972-1.329,2.972-2.97v-26.733
			c-0.01-8.198-6.653-14.842-14.853-14.851h-26.732v-5.941h26.732c1.642,0,2.971-1.33,2.971-2.971V94.06h14.853
			c1.64,0,2.969-1.33,2.969-2.97V43.564C186.139,41.924,184.81,40.594,183.17,40.594z M168.317,88.12h-5.94v-5.94h5.94V88.12z
			 M156.436,88.12h-5.939v-5.94h5.939V88.12z M168.317,58.416v5.941h-5.94v-5.941H168.317z M180.199,58.416v5.941h-5.942v-5.941
			H180.199z M150.496,70.297h5.939v5.941h-5.939V70.297z M162.377,70.297h5.94v5.941h-5.94V70.297z M156.436,64.357h-5.939v-5.941
			h5.939V64.357z M174.257,70.297h5.942v5.941h-5.942V70.297z M180.199,52.475h-29.703v-5.94h29.703V52.475z M162.377,100h-23.763
			V34.654h23.763v5.94h-14.852c-1.641,0-2.972,1.33-2.972,2.97V91.09c0,1.641,1.331,2.97,2.972,2.97h14.852V100z M180.199,88.12
			h-5.942v-5.94h5.942V88.12z"/>
		<path fill="#038181" d="M156.795,150.137c1.642,0,2.971-1.33,2.971-2.971c0-0.787-0.313-1.542-0.87-2.1
			c-4.7-4.491-12.102-4.491-16.801,0c-1.14,1.181-1.107,3.061,0.073,4.2c1.15,1.111,2.976,1.111,4.126,0
			c2.352-2.244,6.052-2.244,8.401,0C155.252,149.823,156.008,150.137,156.795,150.137z"/>
		<path fill="#038181" d="M165.197,141.734c1.642-0.001,2.971-1.331,2.971-2.972c0-0.787-0.313-1.542-0.87-2.1
			c-9.278-9.279-24.325-9.28-33.604,0c0,0,0,0-0.002,0c-1.14,1.18-1.106,3.061,0.074,4.201c1.15,1.111,2.976,1.111,4.126,0
			c6.96-6.962,18.245-6.962,25.205-0.003c0,0.001,0.002,0.002,0.002,0.003C163.653,141.423,164.41,141.736,165.197,141.734z"/>
		<circle fill="#038181" cx="150.496" cy="156.437" r="2.97"/>
		<path fill="#038181" d="M144.554,174.259h14.853c1.64,0,2.971-1.33,2.971-2.971c0-1.64-1.331-2.97-2.971-2.97h-14.853
			c-1.64,0-2.969,1.33-2.969,2.97C141.585,172.929,142.914,174.259,144.554,174.259z"/>
		<path fill="#038181" d="M85.148,120.793c1.64,0,2.97-1.33,2.97-2.971v-6.487c4.639-1.64,7.072-6.731,5.431-11.371
			s-6.732-7.071-11.372-5.431c-4.64,1.64-7.072,6.732-5.431,11.371c0.897,2.537,2.894,4.534,5.431,5.431v6.487
			C82.178,119.463,83.508,120.793,85.148,120.793z M85.148,100c1.64,0,2.97,1.33,2.97,2.97s-1.331,2.971-2.97,2.971
			c-1.641,0-2.971-1.33-2.971-2.971S83.508,100,85.148,100z"/>
		<path fill="#038181" d="M82.599,40.624l-41.584-5.94c-1.623-0.233-3.129,0.894-3.362,2.519c-0.021,0.139-0.03,0.28-0.03,0.421
			v17.822c-0.001,1.478,1.085,2.731,2.548,2.94l41.584,5.941c0.14,0.02,0.281,0.03,0.422,0.03c1.641,0,2.971-1.33,2.971-2.97V43.564
			C85.148,42.087,84.062,40.833,82.599,40.624z M79.208,57.961L43.564,52.87V41.049l35.644,5.091V57.961z"/>
		<circle fill="#038181" cx="59.9" cy="77.723" r="4.456"/>
	</g>
</g>
</svg>
