<?xml version="1.0" encoding="utf-8"?>
<!-- Generator: Adobe Illustrator 16.0.0, SVG Export Plug-In . SVG Version: 6.00 Build 0)  -->
<!DOCTYPE svg PUBLIC "-//W3C//DTD SVG 1.1//EN" "http://www.w3.org/Graphics/SVG/1.1/DTD/svg11.dtd">
<svg version="1.1" id="Layer_1" xmlns="http://www.w3.org/2000/svg" xmlns:xlink="http://www.w3.org/1999/xlink" x="0px" y="0px"
	 width="508px" height="508px" viewBox="0 0 508 508" enable-background="new 0 0 508 508" xml:space="preserve">
<path fill="#FFFFFF" d="M256.238,263.056l-21.394-14.81l9.104-13.147l12.289,8.511l12.293-8.511l9.104,13.147L256.238,263.056z"/>
<path fill="#FFFFFF" d="M336.16,116.382h-15.984v-15.984h-15.984V84.414h31.969V116.382z"/>
<path fill="#FFFFFF" d="M192.3,116.382h-15.984V84.414h31.969v15.984H192.3V116.382z"/>
<path fill="#FFFFFF" d="M248.246,164.335h15.984v15.984h-15.984V164.335z"/>
<path fill="#FFFFFF" d="M216.648,274.525l39.59,27.402l39.594-27.402c45.28-31.353,72.301-82.919,72.297-137.995V61.405l-8.999-1.12
	c-18.728-2.326-36.851-8.175-53.401-17.249c-16.573-9.042-31.281-21.147-43.352-35.668L256.238,0l-6.135,7.368
	c-12.07,14.509-26.783,26.603-43.353,35.637c-16.55,9.069-34.673,14.923-53.401,17.249l-9.003,1.12V136.5
	c0,55.071,27.021,106.642,72.301,137.995V274.525z M160.332,75.407c18.958-2.946,37.261-9.167,54.084-18.384
	c15.594-8.5,29.717-19.458,41.823-32.453c12.109,12.995,26.229,23.957,41.826,32.464c16.823,9.214,35.126,15.434,54.08,18.373
	v61.124c0.004,49.83-24.445,96.492-65.412,124.854l-30.494,21.109l-30.49-21.109c-40.968-28.362-65.417-75.024-65.417-124.854
	V75.407z"/>
<path fill="#FFFFFF" d="M304.191,132.367h-15.984v-15.984c0-17.654-14.311-31.969-31.969-31.969
	c-17.655,0-31.969,14.314-31.969,31.969v15.984h-15.984v79.922h95.907V132.367z M240.253,116.382
	c0-8.827,7.157-15.984,15.985-15.984c8.831,0,15.984,7.157,15.984,15.984v15.984h-31.969V116.382z M288.207,196.305h-63.938v-47.954
	h63.938V196.305z"/>
<path fill="#FFFFFF" d="M384.113,84.414h111.891v15.984H384.113V84.414z"/>
<path fill="#FFFFFF" d="M384.113,124.375h79.922v15.984h-79.922V124.375z"/>
<path fill="#FFFFFF" d="M384.113,164.335h47.953v15.984h-47.953V164.335z"/>
<path fill="#FFFFFF" d="M16.472,84.414h111.891v15.984H16.472V84.414z"/>
<path fill="#FFFFFF" d="M48.441,124.375h79.922v15.984H48.441V124.375z"/>
<path fill="#FFFFFF" d="M80.41,164.335h47.953v15.984H80.41V164.335z"/>
<path fill="#FFFFFF" d="M443.672,364.94c-13.725,1.698-26.634,7.446-37.085,16.511l-8.093,7.002l7.449-52.652l-6.962-1.76
	c-24.882-6.26-50.26,8.285-57.433,32.921l-15.73,52.933l-30.553,6.849l-52.331-7.543l39.161-19.751
	c12.901-6.528,20.569-20.214,19.403-34.626c-1.167-14.411-10.935-26.685-24.719-31.052c-8.347-2.61-17.37-2.018-25.303,1.67
	l-123.735,60.668H0.488v15.984H131.45l126.876-62.197c4.293-1.971,9.162-2.279,13.666-0.862c4.535,1.437,8.379,4.491,10.798,8.585
	c2.806,4.676,3.528,10.311,1.99,15.544c-1.476,5.21-5.069,9.562-9.912,11.988l-51.828,26.143v21.179l72.858,10.501l86.396-19.372
	l34.755-30.076c13.347-11.59,31.547-15.863,48.659-11.426l-64.012,64.577L312,482.896l-72.25,9.12H0.488V508h240.273l74.271-9.366
	l95.73-38.364l82.67-83.438l-9.808-4.956C471.298,365.631,457.386,363.216,443.672,364.94z M380.117,404.367l-5.226,4.515
	l-31.169,6.993l13.187-44.367c3.941-13.533,16.309-22.867,30.404-22.945h0.679L380.117,404.367z"/>
</svg>
