<?xml version="1.0" encoding="utf-8"?>
<!-- Generator: Adobe Illustrator 16.0.0, SVG Export Plug-In . SVG Version: 6.00 Build 0)  -->
<!DOCTYPE svg PUBLIC "-//W3C//DTD SVG 1.1//EN" "http://www.w3.org/Graphics/SVG/1.1/DTD/svg11.dtd">
<svg version="1.1" id="Layer_1" xmlns="http://www.w3.org/2000/svg" xmlns:xlink="http://www.w3.org/1999/xlink" x="0px" y="0px"
	 width="150px" height="150px" viewBox="0 0 150 150" enable-background="new 0 0 150 150" xml:space="preserve">
<g>
	<path fill="#089A90" d="M128.397,25.133c-1.688-1.689-4.429-1.689-6.116,0c-1.688,1.688-1.688,4.427,0,6.115
		c12.298,12.297,19.069,28.659,19.069,46.07c0,17.412-6.771,33.773-19.069,46.071c-1.688,1.688-1.688,4.426,0,6.114
		c1.691,1.692,4.431,1.687,6.116,0C142.327,115.574,150,97.041,150,77.318C150,57.596,142.327,39.063,128.397,25.133z"/>
	<path fill="#089A90" d="M115.302,38.226c-1.688-1.688-4.426-1.688-6.115,0c-1.688,1.689-1.688,4.427,0,6.116
		c8.803,8.802,13.65,20.514,13.65,32.977s-4.847,24.174-13.65,32.977c-1.688,1.688-1.688,4.427,0,6.115
		c1.688,1.688,4.428,1.689,6.115,0c10.438-10.435,16.184-24.318,16.184-39.092C131.485,62.544,125.738,48.662,115.302,38.226z"/>
	<path fill="#089A90" d="M102.199,51.33c-1.688-1.688-4.428-1.688-6.115,0c-1.688,1.689-1.688,4.427,0,6.116
		c5.305,5.304,8.226,12.361,8.226,19.873c0,7.511-2.921,14.568-8.226,19.873c-1.688,1.688-1.688,4.428,0,6.115
		c1.688,1.688,4.425,1.688,6.115,0c6.938-6.938,10.759-16.168,10.759-25.988C112.958,67.497,109.137,58.268,102.199,51.33z"/>
	<path fill="#089A90" d="M11.044,77.318c0-17.412,6.772-33.773,19.07-46.07c1.688-1.688,1.688-4.427,0-6.115
		c-1.689-1.688-4.427-1.689-6.116,0C10.067,39.063,2.396,57.596,2.396,77.318c0,19.723,7.672,38.256,21.603,52.186
		c1.688,1.688,4.427,1.689,6.116,0c1.688-1.688,1.688-4.427,0-6.114C17.816,111.092,11.044,94.73,11.044,77.318z"/>
	<path fill="#089A90" d="M29.557,77.318c0-12.463,4.849-24.174,13.65-32.977c1.689-1.689,1.689-4.427,0-6.116
		c-1.688-1.689-4.426-1.688-6.115,0C26.656,48.662,20.909,62.545,20.909,77.318c0,14.773,5.747,28.657,16.183,39.093
		c1.691,1.69,4.429,1.686,6.115,0c1.688-1.689,1.688-4.428,0-6.116C34.406,101.492,29.557,89.781,29.557,77.318z"/>
	<path fill="#089A90" d="M56.311,51.33c-1.688-1.688-4.426-1.688-6.115,0c-6.938,6.938-10.759,16.167-10.759,25.988
		c0,9.82,3.821,19.051,10.759,25.988c1.69,1.69,4.429,1.688,6.115,0c1.689-1.688,1.689-4.426,0-6.115
		c-5.304-5.304-8.226-12.361-8.226-19.873c0-7.511,2.922-14.568,8.226-19.873C58,55.757,58,53.019,56.311,51.33z"/>
	<path fill="#089A90" d="M76.197,59.099c-10.047,0-18.22,8.173-18.22,18.22c0,10.046,8.173,18.22,18.22,18.22
		s18.22-8.174,18.22-18.22C94.417,67.272,86.244,59.099,76.197,59.099z"/>
</g>
</svg>
