<?xml version="1.0" encoding="utf-8"?>
<!-- Generator: Adobe Illustrator 16.0.0, SVG Export Plug-In . SVG Version: 6.00 Build 0)  -->
<!DOCTYPE svg PUBLIC "-//W3C//DTD SVG 1.1//EN" "http://www.w3.org/Graphics/SVG/1.1/DTD/svg11.dtd">
<svg version="1.1" id="Layer_1" xmlns="http://www.w3.org/2000/svg" xmlns:xlink="http://www.w3.org/1999/xlink" x="0px" y="0px"
	 width="83.236px" height="150px" viewBox="0 0 83.236 150" enable-background="new 0 0 83.236 150" xml:space="preserve">
<g>
	<circle fill="#089A90" cx="61.332" cy="87.486" r="2.19"/>
	<circle fill="#089A90" cx="61.332" cy="115.084" r="2.19"/>
	<circle fill="#089A90" cx="48.189" cy="87.486" r="2.19"/>
	<circle fill="#089A90" cx="48.189" cy="115.084" r="2.19"/>
	<path fill="#089A90" d="M13.251,38.638h-1.204C5.404,38.638,0,44.042,0,50.686s5.404,12.047,12.047,12.047h27.38v8.762H8.762
		c-1.209,0-2.19,0.982-2.19,2.19v55.199c0,1.211,0.981,2.19,2.19,2.19h23c1.209,0,2.19-0.979,2.19-2.19
		c0-1.209-0.981-2.19-2.19-2.19H10.952v-23.218h61.332v23.218h-20.81c-1.209,0-2.19,0.981-2.19,2.19c0,1.211,0.981,2.19,2.19,2.19
		h23c1.21,0,2.19-0.979,2.19-2.19c0-1.558,0-53.642,0-55.199c0-1.208-0.98-2.19-2.19-2.19H43.809v-8.762h27.38
		c6.644,0,12.048-5.404,12.048-12.047s-5.404-12.047-12.048-12.047h-1.251c-1.066-7.42-7.467-13.143-15.177-13.143
		c-1.235,0-2.463,0.163-3.719,0.495c-4.165-4.508-9.915-7.066-15.995-7.066C23.708,18.924,14.354,27.585,13.251,38.638
		L13.251,38.638z M72.284,75.875v23.219H10.952V75.875H72.284z M35.047,23.305c5.247,0,10.193,2.398,13.572,6.58
		c0.586,0.725,1.569,1,2.446,0.683c1.292-0.465,2.501-0.692,3.695-0.692c6.04,0,10.952,4.914,10.952,10.952
		c0,1.209,0.98,2.19,2.19,2.19h3.285c4.229,0,7.667,3.439,7.667,7.667c0,4.228-3.438,7.667-7.667,7.667H12.047
		c-4.228,0-7.667-3.438-7.667-7.667c0-4.227,3.439-7.667,7.667-7.667h3.286c1.209,0,2.19-0.981,2.19-2.19
		C17.523,31.167,25.385,23.305,35.047,23.305z"/>
	<circle fill="#089A90" cx="41.618" cy="128.884" r="2.19"/>
</g>
</svg>
