<?xml version="1.0" encoding="utf-8"?>
<!-- Generator: Adobe Illustrator 16.0.0, SVG Export Plug-In . SVG Version: 6.00 Build 0)  -->
<!DOCTYPE svg PUBLIC "-//W3C//DTD SVG 1.1//EN" "http://www.w3.org/Graphics/SVG/1.1/DTD/svg11.dtd">
<svg version="1.1" id="Layer_1" xmlns="http://www.w3.org/2000/svg" xmlns:xlink="http://www.w3.org/1999/xlink" x="0px" y="0px"
	 width="200px" height="200px" viewBox="0 0 200 200" enable-background="new 0 0 200 200" xml:space="preserve">
<g>
	<g>
		<g>
			<polygon fill="#038181" points="152.609,120.197 138.118,134.688 142.471,139.041 149.531,131.982 149.531,158.416 
				155.688,158.416 155.688,131.982 162.749,139.041 167.101,134.688 			"/>
		</g>
	</g>
	<g>
		<g>
			<polygon fill="#038181" points="83.975,33.09 79.621,37.443 86.681,44.502 41.774,44.502 41.774,50.66 86.681,50.66 
				79.621,57.72 83.975,62.073 98.466,47.582 			"/>
		</g>
	</g>
	<g>
		<g>
			<path fill="#038181" d="M17.145,133.787v43.102h55.417v-43.102H17.145z M66.404,170.73H23.302v-30.787h43.102V170.73z"/>
		</g>
	</g>
	<g>
		<g>
			<rect x="81.798" y="133.787" fill="#038181" width="30.788" height="6.156"/>
		</g>
	</g>
	<g>
		<g>
			<rect x="81.798" y="146.102" fill="#038181" width="30.788" height="6.158"/>
		</g>
	</g>
	<g>
		<g>
			<rect x="81.798" y="158.416" fill="#038181" width="30.788" height="6.158"/>
		</g>
	</g>
	<g>
		<g>
			<rect x="81.798" y="170.73" fill="#038181" width="30.788" height="6.158"/>
		</g>
	</g>
	<g>
		<g>
			<path fill="#038181" d="M192.531,100.668c-2.227-7.795-8.545-13.627-16.493-15.212l-17.272-3.455v-0.807
				c5.697-3.306,9.939-8.824,11.566-15.375c5.679-1.096,9.986-6.086,9.986-12.081V32.566c0-8.491-5.497-15.908-13.505-18.435
				c-4.482-6.065-11.556-9.652-19.146-9.652c-19.347,0-35.082,15.736-35.082,35.082v14.178c0,5.995,4.308,10.985,9.986,12.081
				c1.627,6.552,5.869,12.069,11.565,15.375v0.807l-17.267,3.455c-6.574,1.314-11.995,5.554-14.947,11.385H4.83v98.52h123.15
				v-80.049h68.736L192.531,100.668z M171.081,59.041V48.438c1.831,1.068,3.081,3.032,3.081,5.301
				C174.162,56.008,172.912,57.972,171.081,59.041z M121.823,59.041c-1.834-1.069-3.081-3.033-3.081-5.302
				c0-2.269,1.247-4.233,3.081-5.301V59.041z M118.742,43.136v-3.577c0-15.945,12.975-28.922,28.926-28.922
				c5.919,0,11.413,2.94,14.696,7.866l0.656,0.988l1.154,0.289c5.882,1.469,9.987,6.728,9.987,12.786v10.569
				c-1.821-1.059-3.905-1.712-6.159-1.712c-7.28,0-14.496-2.404-20.323-6.773l-4.597-3.448l-4.593,4.593
				c-3.63,3.63-8.455,5.628-13.589,5.628C122.647,41.424,120.563,42.077,118.742,43.136z M127.979,59.896V47.375
				c5.611-0.674,10.806-3.168,14.863-7.226l0.819-0.819l0.328,0.243c6.059,4.544,13.395,7.288,20.935,7.881v12.441
				c0,10.188-8.285,18.473-18.474,18.473C136.265,78.369,127.979,70.084,127.979,59.896z M121.823,189.205H10.987v-61.576h110.836
				V189.205z M121.823,121.471H10.987v-18.473h88.72l-3.519,12.314h25.635V121.471z M173.482,109.157l-2.496-9.982l-5.972,1.489
				l2.124,8.493h-41.373l2.121-8.493l-5.972-1.489l-2.498,9.982h-15.066l1.944-6.798c1.594-5.57,6.106-9.73,11.783-10.865
				l22.217-4.443v-3.337c1.974,0.514,4.027,0.813,6.156,0.813c2.131,0,4.185-0.299,6.158-0.81v3.337l22.22,4.44
				c5.677,1.135,10.191,5.298,11.783,10.865l1.938,6.798H173.482z"/>
		</g>
	</g>
	<g>
		<g>
			<rect x="17.145" y="109.157" fill="#038181" width="6.158" height="6.155"/>
		</g>
	</g>
	<g>
		<g>
			<rect x="29.459" y="109.157" fill="#038181" width="6.157" height="6.155"/>
		</g>
	</g>
	<g>
		<g>
			<rect x="41.774" y="109.157" fill="#038181" width="6.158" height="6.155"/>
		</g>
	</g>
	<g>
		<g>
			<rect x="4.83" y="44.502" fill="#038181" width="6.158" height="6.158"/>
		</g>
	</g>
	<g>
		<g>
			<rect x="17.145" y="44.502" fill="#038181" width="6.158" height="6.158"/>
		</g>
	</g>
	<g>
		<g>
			<rect x="29.459" y="44.502" fill="#038181" width="6.157" height="6.158"/>
		</g>
	</g>
	<g>
		<g>
			<rect x="149.531" y="189.205" fill="#038181" width="6.156" height="6.156"/>
		</g>
	</g>
	<g>
		<g>
			<rect x="149.531" y="176.889" fill="#038181" width="6.156" height="6.156"/>
		</g>
	</g>
	<g>
		<g>
			<rect x="149.531" y="164.574" fill="#038181" width="6.156" height="6.156"/>
		</g>
	</g>
</g>
</svg>
