<?xml version="1.0" encoding="iso-8859-1"?>
<!-- Generator: Adobe Illustrator 19.0.0, SVG Export Plug-In . SVG Version: 6.00 Build 0)  -->
<svg version="1.1" id="Capa_1" xmlns="http://www.w3.org/2000/svg" xmlns:xlink="http://www.w3.org/1999/xlink" x="0px" y="0px"
	 viewBox="0 0 511.998 511.998" style="enable-background:new 0 0 511.998 511.998;" xml:space="preserve">
<g>
	<g>
		<path d="M145.631,338.609l-11.53-25.987c-2.069-4.664-6.501-7.943-11.567-8.558l-49.775-6.037
			c-4.837-0.582-9.623,1.269-12.802,4.962c-3.178,3.694-4.298,8.704-2.996,13.399l7.275,26.234c1.607,5.794,6.51,9.953,12.49,10.595
			l54.031,5.792c0.539,0.058,1.074,0.087,1.605,0.086c4.639,0,8.937-2.169,11.723-5.99
			C147.19,348.847,147.768,343.428,145.631,338.609z M78.614,338.334l-7.027-25.339l48.901,5.931l11.132,25.091L78.614,338.334z"/>
	</g>
</g>
<g>
	<g>
		<path d="M452.31,302.99c-3.18-3.694-7.97-5.547-12.801-4.962l-49.776,6.037c-5.065,0.614-9.497,3.894-11.565,8.557l-11.53,25.989
			c-2.138,4.817-1.56,10.236,1.545,14.495c2.786,3.821,7.083,5.991,11.724,5.99c0.53,0,1.066-0.028,1.605-0.086l54.032-5.792
			c5.979-0.642,10.88-4.801,12.488-10.596l7.275-26.233C456.609,311.693,455.489,306.684,452.31,302.99z M433.655,338.334
			l-53.007,5.683l11.133-25.091l48.901-5.931L433.655,338.334z"/>
	</g>
</g>
<g>
	<g>
		<path d="M354.528,338.785l-6.18-24.058c-2.066-8.044-9.311-13.662-17.616-13.662H181.536c-8.306,0-15.55,5.618-17.617,13.662
			l-6.18,24.059c-1.409,5.484-0.226,11.197,3.245,15.672c3.471,4.475,8.709,7.041,14.372,7.041h161.556
			c5.663,0,10.902-2.566,14.373-7.042C354.756,349.982,355.937,344.27,354.528,338.785z M339.431,345.265
			c-0.357,0.461-1.16,1.234-2.52,1.234H175.356c-1.359,0-2.162-0.773-2.519-1.234s-0.907-1.431-0.569-2.747l0.959-3.735h94.357
			c4.143,0,7.5-3.357,7.5-7.5s-3.357-7.5-7.5-7.5H177.08l1.367-5.322c0.362-1.41,1.632-2.395,3.088-2.395h149.196
			c1.456,0,2.727,0.984,3.089,2.395l1.367,5.322H302.48c-4.143,0-7.5,3.357-7.5,7.5s3.357,7.5,7.5,7.5h36.56l0.959,3.735
			C340.338,343.834,339.789,344.803,339.431,345.265z"/>
	</g>
</g>
<g>
	<g>
		<path d="M492.212,189.635h-30.021c-4.624,0-8.872,1.606-12.244,4.273l-19.565-61.648c-6.423-20.24-25.005-33.839-46.239-33.839
			H369.5v-6.714c0-12.874-10.475-23.349-23.349-23.349h-65.36c-1.396-5.247-6.176-9.131-11.856-9.131h-25.6
			c-5.681,0-10.46,3.883-11.856,9.131h-33.114c-4.142,0-7.5,3.357-7.5,7.5s3.358,7.5,7.5,7.5h32.689v15.063h-73.285v-6.714
			c0-4.05,2.884-7.506,6.857-8.217c4.077-0.73,6.791-4.628,6.06-8.705c-0.731-4.077-4.628-6.79-8.705-6.061
			c-11.133,1.994-19.213,11.659-19.213,22.982v6.714H127.88c-21.234,0-39.817,13.599-46.24,33.839l-19.569,61.662
			c-3.375-2.676-7.631-4.287-12.262-4.287H19.787C8.876,189.635,0,198.511,0,209.424v15.091c0,10.911,8.876,19.787,19.787,19.787
			H34.66c-10.831,14.196-17.368,32.23-17.368,48.955v65.802c0,15.43,10.474,28.453,24.683,32.354v33.458
			c0,15.385,12.516,27.9,27.9,27.9h30.24c15.384,0,27.9-12.516,27.9-27.9v-32.259h255.968v32.259c0,15.385,12.516,27.9,27.9,27.9
			h30.24c15.384,0,27.899-12.516,27.899-27.9v-33.458c14.209-3.9,24.683-16.923,24.683-32.354v-65.802
			c0-16.726-6.537-34.76-17.367-48.955h14.873c10.911,0,19.787-8.876,19.787-19.787v-15.091
			C512,198.511,503.124,189.635,492.212,189.635z M346.151,83.359c4.604,0,8.349,3.745,8.349,8.349v6.714h-73.284V83.359H346.151z
			 M266.216,74.229v24.193h-20.163V74.229H266.216z M95.937,136.799c4.438-13.981,17.274-23.376,31.943-23.376h256.262
			c14.669,0,27.505,9.395,31.942,23.376l26.324,82.947c-3.9-0.984-7.935-1.517-12.077-1.517h-3.336L404,145.776
			c-3.345-10.543-13.024-17.627-24.086-17.627H132.113c-11.062,0-20.742,7.085-24.087,17.629l-22.993,72.45h-3.364
			c-4.134,0-8.161,0.53-12.053,1.51L95.937,136.799z M411.259,218.229H100.77l21.554-67.913c1.36-4.286,5.294-7.166,9.79-7.166
			h247.801c4.495,0,8.429,2.879,9.789,7.164L411.259,218.229z M81.668,233.229h348.663c4.418,0,8.693,0.868,12.763,2.419
			l-14.758,26.583c-4.224,7.609-13.814,12.525-24.435,12.525H108.366c-10.62,0-20.211-4.916-24.436-12.525L69.235,235.76
			C73.407,234.12,77.614,233.229,81.668,233.229z M19.787,229.302c-2.64,0-4.787-2.147-4.787-4.787v-15.091
			c0-2.64,2.147-4.787,4.787-4.787h30.021c2.64,0,4.787,2.147,4.787,4.787v8.054l-3.434,10.822
			c-0.079,0.055-0.157,0.113-0.236,0.168c-0.212,0.149-0.422,0.3-0.633,0.451c-0.179,0.128-0.359,0.252-0.537,0.383H19.787z
			 M113.016,424.87c0,7.113-5.787,12.9-12.9,12.9h-30.24c-7.113,0-12.9-5.787-12.9-12.9V392.61h56.04V424.87z M455.025,424.87
			h-0.001c0,7.113-5.787,12.9-12.899,12.9h-30.24c-7.113,0-12.9-5.787-12.9-12.9V392.61h56.04V424.87z M479.707,293.256v65.802
			c0,10.23-8.322,18.553-18.553,18.553H50.846c-10.23,0-18.553-8.322-18.553-18.553v-65.802c0-20.83,10.601-39.116,24.018-49.873
			l14.506,26.129c6.827,12.298,21.566,20.244,37.55,20.244h295.536c15.983,0,30.723-7.946,37.55-20.244l14.539-26.188
			C470.23,255.158,479.707,275.422,479.707,293.256z M492.213,229.301h-29.954c-0.459-0.336-0.924-0.666-1.394-0.99l-3.461-10.904
			v-7.983c0-2.64,2.147-4.787,4.787-4.787h30.021c2.64,0,4.787,2.147,4.787,4.787v15.09H497
			C497,227.154,494.853,229.301,492.213,229.301z"/>
	</g>
</g>
<g>
</g>
<g>
</g>
<g>
</g>
<g>
</g>
<g>
</g>
<g>
</g>
<g>
</g>
<g>
</g>
<g>
</g>
<g>
</g>
<g>
</g>
<g>
</g>
<g>
</g>
<g>
</g>
<g>
</g>
</svg>
