<?xml version="1.0"?>
<svg xmlns="http://www.w3.org/2000/svg" viewBox="0 0 64 64" width="512" height="512"><g id="Outline"><g><path d="M59,12H54V9a1,1,0,0,0-1-1H44V3a1,1,0,0,0-1-1L3,2.019a.98.98,0,0,0-.659.229A1,1,0,0,0,2,3V24a1,1,0,0,0,2,0V4.142L32,7.875V46a1,1,0,0,0,2,0V7a1,1,0,0,0-.868-.991L18.066,4H42V36.1A5.009,5.009,0,0,0,38,41V56H34V50a1,1,0,0,0-2,0v9.858L4,56.125V28a1,1,0,0,0-2,0V57a1,1,0,0,0,.868.991l30,4A.976.976,0,0,0,33,62a1,1,0,0,0,1-1V58h4.1A5.009,5.009,0,0,0,43,62H53a5.006,5.006,0,0,0,5-5V54a1,1,0,0,0-2,0v3a3,3,0,0,1-3,3H43a3,3,0,0,1-3-3V41a3,3,0,0,1,3-3H53a3,3,0,0,1,3,3v9a1,1,0,0,0,2,0V41a5.006,5.006,0,0,0-5-5H44V34h9a1,1,0,0,0,1-1V30h5a1,1,0,0,0,1-1V13A1,1,0,0,0,59,12ZM54,28H52V26h2Zm-4,0H48V26h2Zm4-10v2H52V18Zm4,0v2H56V18ZM48,22h2v2H48Zm4,0h2v2H52Zm-2-2H48V18h2Zm6,2h2v2H56Zm2-6H48V14H58ZM52,32H44V10h8v2H47a1,1,0,0,0-1,1V29a1,1,0,0,0,1,1h5Zm6-4H56V26h2Z"/><path d="M50.121,48.879a1,1,0,0,0,.707-1.707,4.093,4.093,0,0,0-5.656,0,1,1,0,0,0,1.414,1.414,2.047,2.047,0,0,1,2.828,0A1,1,0,0,0,50.121,48.879Z"/><path d="M52.95,46.05a1,1,0,0,0,.707-1.707,8,8,0,0,0-11.314,0,1,1,0,0,0,1.414,1.414,6,6,0,0,1,8.486,0A.993.993,0,0,0,52.95,46.05Z"/><circle cx="48" cy="51" r="1"/><path d="M46,57h5a1,1,0,0,0,0-2H46a1,1,0,0,0,0,2Z"/><path d="M26,39a1,1,0,0,0,1-1V35.816a3,3,0,1,0-2,0V38A1,1,0,0,0,26,39Zm0-7a1,1,0,1,1-1,1A1,1,0,0,1,26,32Z"/><path d="M25.142,12.01l-14-2A1,1,0,0,0,10,11v6a1,1,0,0,0,.858.99l14,2A.978.978,0,0,0,25,20a1,1,0,0,0,1-1V13A1,1,0,0,0,25.142,12.01ZM24,17.847,12,16.133v-3.98l12,1.714Z"/><circle cx="17.5" cy="24.5" r="1.5"/></g></g></svg>
