<?xml version="1.0" encoding="iso-8859-1"?>
<!-- Generator: Adobe Illustrator 18.0.0, SVG Export Plug-In . SVG Version: 6.00 Build 0)  -->
<!DOCTYPE svg PUBLIC "-//W3C//DTD SVG 1.1//EN" "http://www.w3.org/Graphics/SVG/1.1/DTD/svg11.dtd">
<svg version="1.1" id="Capa_1" xmlns="http://www.w3.org/2000/svg" xmlns:xlink="http://www.w3.org/1999/xlink" x="0px" y="0px"
	 viewBox="0 0 473.505 473.505" style="enable-background:new 0 0 473.505 473.505;" xml:space="preserve">
<g>
	<path d="M463.641,110.831c-6.119-3.592-13.672-3.676-19.869-0.231l-83.649,46.58v159.145l83.649,46.58
		c6.197,3.443,13.75,3.36,19.869-0.232c6.104-3.591,9.864-10.156,9.864-17.24V128.071
		C473.505,120.988,469.744,114.422,463.641,110.831z"/>
	<path d="M303.555,94.046H20.007C8.955,94.046,0,103.001,0,114.045V359.46c0,11.043,8.955,19.999,20.007,19.999h283.548
		c11.051,0,20.007-8.956,20.007-19.999V114.045C323.561,103.001,314.605,94.046,303.555,94.046z M230.85,314.614
		c-47.552,27.196-108.158,10.704-135.379-36.861c-27.204-47.551-10.696-108.158,36.854-135.37
		c9.433-5.387,19.374-9.002,29.472-11.06c-27.822,30.966-34.174,77.444-12.362,115.563c21.809,38.125,65.075,56.213,105.892,47.913
		C248.436,302.461,240.281,309.211,230.85,314.614z"/>
</g>
<g>
</g>
<g>
</g>
<g>
</g>
<g>
</g>
<g>
</g>
<g>
</g>
<g>
</g>
<g>
</g>
<g>
</g>
<g>
</g>
<g>
</g>
<g>
</g>
<g>
</g>
<g>
</g>
<g>
</g>
</svg>
