<svg height="508pt" viewBox="-6 0 508 508.496" width="508pt" xmlns="http://www.w3.org/2000/svg"><path d="m256.246094 263.3125-21.414063-14.824219 9.113281-13.160156 12.300782 8.519531 12.304687-8.519531 9.113281 13.160156zm0 0"/><path d="m336.246094 116.496094h-16v-16h-16v-16h32zm0 0"/><path d="m192.246094 116.496094h-16v-32h32v16h-16zm0 0"/><path d="m248.246094 164.496094h16v16h-16zm0 0"/><path d="m216.617188 274.792969 39.628906 27.429687 39.632812-27.429687c45.324219-31.382813 72.371094-83 72.367188-138.128907v-75.199218l-9.007813-1.121094c-18.746093-2.328125-36.886719-8.183594-53.453125-17.265625-16.589844-9.050781-31.3125-21.167969-43.394531-35.703125l-6.144531-7.375-6.140625 7.375c-12.082031 14.523438-26.808594 26.628906-43.394531 35.671875-16.566407 9.078125-34.707032 14.9375-53.453126 17.265625l-9.011718 1.121094v75.199218c0 55.125 27.046875 106.746094 72.371094 138.128907zm-56.371094-199.3125c18.976562-2.949219 37.296875-9.175781 54.136718-18.402344 15.609376-8.507813 29.746094-19.476563 41.863282-32.484375 12.121094 13.007812 26.253906 23.980469 41.867187 32.496094 16.839844 9.222656 35.160157 15.449218 54.132813 18.390625v61.183593c.003906 49.878907-24.46875 96.585938-65.476563 124.976563l-30.523437 21.128906-30.519532-21.128906c-41.007812-28.390625-65.480468-75.097656-65.480468-124.976563zm0 0"/><path d="m304.246094 132.496094h-16v-16c0-17.671875-14.324219-32-32-32-17.671875 0-32 14.328125-32 32v16h-16v80h96zm-64-16c0-8.835938 7.164062-16 16-16 8.839844 0 16 7.164062 16 16v16h-32zm48 80h-64v-48h64zm0 0"/><path d="m384.246094 84.496094h112v16h-112zm0 0"/><path d="m384.246094 124.496094h80v16h-80zm0 0"/><path d="m384.246094 164.496094h48v16h-48zm0 0"/><path d="m16.246094 84.496094h112v16h-112zm0 0"/><path d="m48.246094 124.496094h80v16h-80zm0 0"/><path d="m80.246094 164.496094h48v16h-48zm0 0"/><path d="m443.863281 365.296875c-13.738281 1.699219-26.660156 7.453125-37.121093 16.527344l-8.101563 7.007812 7.457031-52.703125-6.96875-1.761718c-24.90625-6.265626-50.308594 8.292968-57.488281 32.953124l-15.746094 52.984376-30.582031 6.855468-52.382812-7.550781 39.199218-19.769531c12.914063-6.535156 20.589844-20.234375 19.421875-34.660156-1.167969-14.425782-10.945312-26.710938-24.742187-31.082032-8.355469-2.613281-17.386719-2.019531-25.328125 1.671875l-123.855469 60.726563h-127.378906v16h131.089844l127-62.257813c4.296874-1.972656 9.171874-2.28125 13.679687-.863281 4.539063 1.4375 8.386719 4.496094 10.808594 8.59375 2.808593 4.679688 3.53125 10.320312 1.992187 15.558594-1.476562 5.214844-5.074218 9.570312-9.921875 12l-51.878906 26.167968v21.199219l72.929687 10.511719 86.480469-19.390625 34.789063-30.105469c13.359375-11.601562 31.578125-15.878906 48.707031-11.4375l-64.074219 64.640625-89.785156 36.253907-72.320312 9.128906h-239.496094v16h240.507812l74.34375-9.375 95.824219-38.402344 82.75-83.519531-9.816406-4.960938c-12.339844-6.25-26.265625-8.667969-39.992188-6.941406zm-63.617187 39.464844-5.230469 4.519531-31.199219 7 13.199219-44.410156c3.945313-13.546875 16.324219-22.890625 30.433594-22.96875h.679687zm0 0"/></svg>