<svg id="Capa_1" enable-background="new 0 0 512 512" height="512" viewBox="0 0 512 512" width="512" xmlns="http://www.w3.org/2000/svg"><g><circle cx="346" cy="313" r="10"/><circle cx="346" cy="439" r="10"/><circle cx="286" cy="313" r="10"/><circle cx="286" cy="439" r="10"/><path d="m126.496 90h-5.496c-30.327 0-55 24.673-55 55s24.673 55 55 55h125v40h-140c-5.523 0-10 4.478-10 10v252c0 5.522 4.477 10 10 10h105c5.523 0 10-4.478 10-10s-4.477-10-10-10h-95v-106h280v106h-95c-5.522 0-10 4.478-10 10s4.478 10 10 10h105c5.522 0 10-4.478 10-10 0-7.11 0-244.895 0-252 0-5.522-4.478-10-10-10h-140v-40h125c30.327 0 55-24.673 55-55s-24.673-55-55-55h-5.712c-4.867-33.878-34.085-60-69.288-60-5.639 0-11.243.742-16.981 2.257-19.007-20.581-45.257-32.257-73.019-32.257-51.765 0-94.469 39.539-99.504 90zm269.504 170v106h-280v-106zm-170-240c23.954 0 46.539 10.947 61.962 30.035 2.677 3.313 7.161 4.567 11.166 3.123 5.902-2.125 11.421-3.158 16.872-3.158 27.57 0 50 22.43 50 50 0 5.522 4.478 10 10 10h15c19.299 0 35 15.701 35 35s-15.701 35-35 35h-270c-19.299 0-35-15.701-35-35s15.701-35 35-35h15c5.523 0 10-4.478 10-10 0-44.112 35.888-80 80-80z"/><circle cx="256" cy="502" r="10"/></g></svg>